<svg xmlns="http://www.w3.org/2000/svg" viewBox="0 0 610.62 273.15"><defs><style>.cls-1{fill:#7bc143;}.cls-2{fill:#12a2dc;}.cls-3{fill:#ee3129;}.cls-4,.cls-5{fill:none;}.cls-5{stroke:#12a2dc;stroke-linecap:round;stroke-linejoin:round;stroke-width:0;}</style></defs><g id="Layer_2" data-name="Layer 2"><g id="Layer_1-2" data-name="Layer 1"><path class="cls-1" d="M530.8,126.68c43.2-30,20.4-108-35.73-91.13C471.61,42,459.5,75.11,477.21,93.27c8.69,9.48,27.54,6.08,28.11-8-4.15,13.75-23.89,11.12-28.44-1.21C466.44,58.4,498,32.77,522,44.44c40.3,18.53,21.22,82.79-18.35,89-11.61,1.76-26.28-2-35.09,7.71a36.28,36.28,0,0,1,28.49-2.82,31.08,31.08,0,0,0-14.72,12.16C497.61,140.91,516.35,137.35,530.8,126.68Z"/><path class="cls-2" d="M473.76,20.68c-44.66,32.44-32.59,110.41,31.08,95.6C524.94,110.55,537,86.06,528,66.94c-10.24-24-50.16-15-41.12,12.19,1.13,2.92,5.23,8.46,8.27,4.61-3.59,5.39-9.67-2.28-11.16-6C474.16,44.24,521.88,35.05,535.56,63c17.12,32.57-13.89,70.11-48.87,65.35C427.05,122.3,426.29,45.31,473.76,20.68Z"/><path class="cls-3" d="M549.59,52.29C523.27,6,449.17,33.76,466,86.06c5.3,13.27,21.22,23.2,35.31,17.89C530.16,92.44,512.7,52,497.74,71a8.37,8.37,0,0,0-.05,7c-8.81-20.41,28.59-21.87,25.16,9.85-2.42,21.57-28.21,33.25-46.74,22.89C454.93,100.79,447.93,73.43,457.4,53,472.65,12.88,535.21,10.68,549.59,52.29Z"/><path class="cls-3" d="M459.24,127.88a31.13,31.13,0,0,0,18.28,5.53c-16.46-7.4-29.79-21-46.68-27.18C382,86.84,329.59,149,374.69,186.41c18.37,16,52.63,7.75,58-17.06,3.1-12.48-10.17-26.3-22.19-19,13.74-4.14,22.47,13.76,14.72,24.36-15.62,22.91-54.44,10.78-58-15.67-6.85-43.82,57.24-63.46,84.34-34,7.89,8.7,12.85,23,25.82,25A36.27,36.27,0,0,1,459.24,127.88Z"/><path class="cls-1" d="M374.08,212.38c51.74,19.27,110-33.92,62.45-78.77-15.88-13.57-42.95-10.07-53.9,8-14.36,21.82,15.2,50.11,32.9,27.51,1.8-2.56,4.16-9-.73-9.44,6.47,0,3.44,9.32,1.16,12.62-22.46,26.72-56.52-8-40.77-34.83,16-30,61.72-28.21,78.67,0C488.27,190.58,423.64,239.64,374.08,212.38Z"/><path class="cls-2" d="M349.61,154.83c0,.28-.06.84-.07,1.11Z"/><path class="cls-2" d="M462.93,199.21c4.63,52.39,83.67,71.26,96.85,14.15,6-23.58-16.72-50.5-41.27-44.12-12.54,2.84-18.94,20.9-7,28.36-9.88-10.42,2.19-26.25,15.15-24.09,27.48,3.66,34.08,43.8,12.05,58.84-36.08,25.81-82.41-22.62-68.23-60.09,4.23-10.95,14.79-21.81,10.71-34.28a36.31,36.31,0,0,1-11.68,26.13,31,31,0,0,0-3.27-18.81C467,163.33,460.82,181.37,462.93,199.21Z"/><path class="cls-3" d="M583.26,202.24c-6-54.88-79.73-83.05-98.43-20.41-5,20.28,10.3,42.9,31.36,44.57,25.94,3,37.94-36.09,9.8-41.76-3.09-.46-9.94.35-8.1,4.9-2.9-5.79,6.78-7.27,10.75-6.71,34,8.07,18.27,54.07-12.81,52.07-36.77-1.28-54-46.83-32.52-74.85C518.17,111.28,585.41,148.79,583.26,202.24Z"/><path class="cls-1" d="M518.2,252.41c53.23.08,65.9-78,12.12-89.32-14.16-2-30.67,6.93-33.05,21.8-4.3,30.74,39.51,35.64,30.4,13.22a8.4,8.4,0,0,0-6-3.5c22.09,2.47,4.81,35.68-21,17-17.53-12.8-14.89-41,3.3-51.94,19.11-13.48,46.34-6,59.4,12.37C590.58,205.14,561.47,260.55,518.2,252.41Z"/><path class="cls-4" d="M337.84,143.85q-2.82-6.37-5.92-13.33l-.19,0q-2.42,5.26-5.81,12.95t-5.62,12.56l0,.05h22.93l0-.05Q340.66,150.22,337.84,143.85Z"/><path class="cls-5" d="M339.82,156.72c-.41,1.12-.8,2.24-1.17,3.37"/><path class="cls-2" d="M447.74,160.64a35.18,35.18,0,0,0-.86-4.3c-2.92-11-11.53-20.4-22.4-23.6s-23.63.36-30.72,9.2c-2.89,3.61-4.86,8.14-4.61,12.76s3,9.22,7.37,10.84,9.93-.5,11.46-4.87c-1.39,3.34-5.87,4.74-9.17,3.28s-5.26-5.21-5.21-8.83a14.81,14.81,0,0,1,4.35-9.68c7.55-8,21.32-8.32,30-1.6s12,19.14,9,29.69-11.74,19-22,23a46.44,46.44,0,0,1-35-1c-13.91-6.13-19.23-17.7-25.16-30.84l-15.06-33.4-3.69-8.18c-.11-.23-1.18-3.14-1.42-3.14h-5.32q-9.7,21.45-18.73,40.92-4.38,9.44-6.92,14.87c-5.75-6-13.75-14.53-17-18.58V157c12.94-6.15,17.62-26.38,1.79-32.75-8.3-3.64-19.57-2.28-28.15-2.32.37,25.5.3,42.12,0,63.42h7.82c-.2-17.53-.27-38.65-.05-57.22,24.41-3.86,32,19,8.33,27.4l0,.43c11.59,13.25,19.34,22.14,26.85,30.39h3.52s0,0,0,0a2,2,0,0,0,.12-.29q.54-1.26,2.9-6.54,2.75-6.13,7.78-17.3h28.34c4,8.77,7.28,18,12.87,25.93,5.93,8.42,14.37,14,23.86,17.73a49.75,49.75,0,0,0,30.61,1.57c11-2.86,21.09-9.39,27.55-18.71A40.4,40.4,0,0,0,447.74,160.64Zm-109.09-.55c.37-1.13.76-2.25,1.17-3.37C339.41,157.84,339,159,338.65,160.09Zm-18.37-4,0-.05q2.22-4.87,5.62-12.56t5.81-12.95l.19,0q3.1,6.94,5.92,13.33t5.35,12.22l0,.05Z"/><rect class="cls-4" width="610.62" height="273.15"/><path class="cls-2" d="M59,178.84c0,.28-.12,1.07-.26,2.37s-.28,2.71-.4,4.24H56.74a66.09,66.09,0,0,1-20.35-2.88,37.29,37.29,0,0,1-14.63-8.37,27.75,27.75,0,0,1-6.31-9.1A29.82,29.82,0,0,1,13.13,153a26.39,26.39,0,0,1,2.3-11.13,30.35,30.35,0,0,1,6-8.8,37.4,37.4,0,0,1,14.49-8.62,58.28,58.28,0,0,1,19.46-3.19h2.11c0,.56.09,1.46.19,2.69s.2,2.58.32,4H56.41a60.49,60.49,0,0,0-12.16,1.29,37,37,0,0,0-10.85,3.87,24.74,24.74,0,0,0-9.11,8.65,21.58,21.58,0,0,0-3.19,11.38A23.39,23.39,0,0,0,24,164.66a22.94,22.94,0,0,0,9.06,8.7,39,39,0,0,0,11.34,4.22,61.09,61.09,0,0,0,12.47,1.31h.89C58.13,178.89,58.57,178.87,59,178.84Z"/><path class="cls-2" d="M115.4,184.61h-7.74q0-2.82.12-10.39t.07-18.87l-8.35,0L88,155.3l-11.14,0-7.05,0q0,13,.07,19.74t.11,9.52H62.27c0-1.88.07-5.2.14-10s.09-12.86.09-24.24q0-5.16-.07-12.57t-.16-16H70q0,7.13-.09,14t-.09,13.06l6.12,0q5.55,0,12.12,0,5.06,0,12.19,0l7.6,0q0-6.19-.1-13t-.09-14h7.74q-.11,7.08-.17,16.37t-.07,15.14q0,13.78.09,21.13C115.32,179.35,115.36,182.73,115.4,184.61Z"/><path class="cls-2" d="M128.75,184.61H121c0-1.88.07-5.22.14-10s.09-11.73.09-20.73q0-5.35,0-14t-.18-18h7.73q-.09,6.71-.16,15.59c-.05,5.93-.07,10.76-.07,14.52q0,14.25.09,22.06T128.75,184.61Z"/><path class="cls-2" d="M215.91,183.67l-7.64,1.5-9.68-52.62-.06-.07q-1.83,3.79-8.12,17.64T178.16,177.9h-6.47Q166.11,165,159.36,150t-7.93-17.48h-.1q-.29,1.22-3.8,17.94t-6.71,34.6l-7.2-1.31q4.68-20.22,8.77-40.05t4.45-21.52l7.46-1.08q.47,1.08,6.63,15.1t14.51,32.31h.29q6.38-14.35,13.5-30.58t7.41-16.83l7.08.56q.14,1,3.89,20.56T215.91,183.67Z"/><path class="cls-2" d="M258.52,184.52l-6.24-.05q-5.81,0-14.39-.05-6,0-10.91.05t-8.37.05c.07-1.82.12-5.74.17-11.77s.07-12.27.07-18.71q0-5.31,0-14T218.61,122q3.33,0,8.33.05t10.29,0q9,0,14.58,0l6.1-.05v6.52l-5.88-.07q-5.43-.07-13.49-.07l-6.89,0-5.35,0q0,5.3-.09,10.57t-.09,10l5,0,5.14,0q8.25,0,14.74-.07l6.92-.07v6.47l-7.74-.07q-7.36-.07-13.46-.07l-5.36,0-5.23,0q0,8.86,0,14.07c0,3.47.07,6.37.1,8.72,1.84,0,4.08.05,6.7.07l8.49,0c4.66,0,8.57,0,11.75,0s4.94-.05,5.32-.05Z"/></g></g></svg>